<?xml version="1.0" encoding="UTF-8" standalone="no"?>
<!-- Created with Inkscape (http://www.inkscape.org/) -->

<svg
   width="512"
   height="512"
   viewBox="0 0 135.46666 135.46667"
   version="1.1"
   id="svg5"
   xmlns="http://www.w3.org/2000/svg"
   xmlns:svg="http://www.w3.org/2000/svg">
  <defs
     id="defs2">
    <marker
       style="overflow:visible"
       id="marker7652"
       refX="0"
       refY="0"
       orient="auto-start-reverse"
       markerWidth="4"
       markerHeight="3.2"
       viewBox="0 0 6.1347524 5.9304951"
       preserveAspectRatio="xMidYMid">
      <path
         transform="scale(0.7)"
         d="m -0.21114562,-4.1055728 6.42229122,3.21114561 a 1,1 90 0 1 0,1.78885438 L -0.21114562,4.1055728 A 1.236068,1.236068 31.717474 0 1 -2,3 v -6 a 1.236068,1.236068 148.28253 0 1 1.78885438,-1.1055728 z"
         style="fill:context-stroke;fill-rule:evenodd;stroke:none"
         id="path7650" />
    </marker>
    <filter
       style="color-interpolation-filters:sRGB"
       id="filter4928" />
  </defs>
  <g
     id="layer1"
     transform="translate(-0.33489905)">
    <g
       id="g20099"
       transform="translate(9.6811615,0.79701713)">
      <g
         id="g9950"
         transform="matrix(1.2291308,0,0,1.2291308,-17.055412,-8.9533994)">
        <path
           id="path7029"
           style="fill:#000000;fill-opacity:1;stroke:#000101;stroke-width:1.08175;stroke-linecap:round;stroke-linejoin:round;stroke-dasharray:none;stroke-opacity:1"
           d="m 26.793647,74.887352 c -0.365457,0 -0.661758,0.281228 -0.661758,0.628124 v 1.281052 c 0,0.346898 0.296218,0.628123 0.661758,0.628123 h 0.707164 L 25.868279,102.27925 H 40.327732 L 38.739765,77.425492 h 0.662599 c 0.365449,1.7e-5 0.661758,-0.282148 0.661758,-0.628964 v -1.281052 c 0,-0.346815 -0.296223,-0.628124 -0.661758,-0.628124 z" />
        <path
           id="path7024"
           style="fill:#000000;fill-opacity:1;stroke:#000101;stroke-width:1.07729;stroke-linecap:round;stroke-linejoin:round;stroke-dasharray:none;stroke-opacity:1"
           d="m 44.87553,63.055171 c -0.365453,0 -0.661758,0.280811 -0.661758,0.627703 v 1.281473 c 0,0.346898 0.296222,0.627703 0.661758,0.627703 h 0.803443 L 44.06452,102.16532 H 58.295258 L 56.724529,65.592891 h 0.759718 c 0.365451,1.7e-5 0.661758,-0.281728 0.661758,-0.628544 v -1.281473 c 0,-0.346811 -0.296221,-0.627703 -0.661758,-0.627703 z" />
        <path
           style="fill:#000000;fill-opacity:1;stroke:#000101;stroke-width:1.0763;stroke-linecap:round;stroke-linejoin:round;stroke-dasharray:none;stroke-opacity:1"
           d="m 62.957414,69.0379 c -0.365457,0 -0.661758,0.280807 -0.661758,0.627703 v 1.281473 c 0,0.346897 0.296218,0.627703 0.661758,0.627703 h 0.759298 l -1.625386,30.645191 h 14.340891 l -1.58166,-30.64435 h 0.715573 c 0.365451,1.7e-5 0.661758,-0.281729 0.661758,-0.628544 v -1.281473 c 0,-0.346815 -0.296221,-0.627703 -0.661758,-0.627703 z"
           id="path6999" />
        <path
           id="path7036"
           style="fill:#000000;fill-opacity:1;stroke:#000101;stroke-width:1.07994;stroke-linecap:round;stroke-linejoin:round;stroke-dasharray:none;stroke-opacity:1"
           d="m 81.039297,52.49227 c -0.365457,0 -0.661758,0.281228 -0.661758,0.628124 v 1.281052 c 0,0.346898 0.296218,0.628124 0.661758,0.628124 h 0.869871 l -1.594693,47.04956 H 94.372836 L 92.821447,55.03041 h 0.826567 c 0.365448,1.7e-5 0.661758,-0.282148 0.661758,-0.628964 v -1.281052 c 0,-0.346815 -0.296224,-0.628124 -0.661758,-0.628124 z" />
        <path
           id="rect2469"
           style="fill:none;stroke:#000000;stroke-width:4.52047;stroke-linecap:round;stroke-linejoin:round;stroke-dasharray:none;stroke-opacity:1"
           d="M 102.38292,103.01926 H 19.829594 V 20.465913" />
        <path
           id="path10894"
           style="fill:#717171;fill-opacity:1;stroke:none;stroke-width:2.18372;stroke-linecap:round;stroke-linejoin:round;stroke-dasharray:none;stroke-opacity:1"
           d="m 83.320974,15.190818 a 12.644076,12.644076 0 0 0 -12.116812,9.04893 10.528896,10.528896 0 0 0 -6.543584,-2.280416 10.528896,10.528896 0 0 0 -10.510767,9.997842 10.528896,10.528896 0 0 0 -3.214613,-0.503256 10.528896,10.528896 0 0 0 -9.920903,7.003114 10.528896,10.528896 0 0 0 -0.1564,0.493586 9.6358204,9.6358204 0 0 0 -1.156605,-0.06979 9.6358204,9.6358204 0 0 0 -9.635851,9.63543 9.6358204,9.6358204 0 0 0 1.46478,5.101086 7.2842364,7.2842364 0 0 0 -3.672462,6.321175 7.2842364,7.2842364 0 0 0 2.667633,5.632931 4.1363521,4.1363521 0 0 0 -1.211681,2.921573 4.1363521,4.1363521 0 0 0 4.136197,4.136617 4.1363521,4.1363521 0 0 0 4.136197,-4.136617 4.1363521,4.1363521 0 0 0 -0.318686,-1.59133 7.2842364,7.2842364 0 0 0 5.158684,-6.963174 7.2842364,7.2842364 0 0 0 -0.309016,-2.098369 9.6358204,9.6358204 0 0 0 4.134935,-2.258554 6.4865522,6.4865522 0 0 0 0.686984,0.648304 4.1363521,4.1363521 0 0 0 -0.04583,0.606261 4.1363521,4.1363521 0 0 0 4.136197,4.136197 4.1363521,4.1363521 0 0 0 4.136198,-4.136197 4.1363521,4.1363521 0 0 0 -0.04499,-0.607102 6.4865522,6.4865522 0 0 0 1.960468,-2.747514 4.5202112,4.5202112 0 0 0 0.668485,0.05171 4.5202112,4.5202112 0 0 0 1.866712,-0.405716 11.798004,11.798004 0 0 0 2.885836,2.282939 6.4865522,6.4865522 0 0 0 -0.0038,0.109732 6.4865522,6.4865522 0 0 0 2.887518,5.392024 4.1363521,4.1363521 0 0 0 -0.53731,2.034464 4.1363521,4.1363521 0 0 0 4.136618,4.136197 4.1363521,4.1363521 0 0 0 4.136197,-4.136197 4.1363521,4.1363521 0 0 0 -0.535629,-2.035305 6.4865522,6.4865522 0 0 0 2.885836,-5.391183 6.4865522,6.4865522 0 0 0 -0.07568,-0.98633 11.798004,11.798004 0 0 0 4.576388,-7.835567 7.238616,7.238616 0 0 0 2.543606,-1.45469 7.2386165,7.0976043 0 0 0 0.726083,0.409499 4.1363521,4.1363521 0 0 0 -0.155979,1.124232 4.1363521,4.1363521 0 0 0 4.136617,4.136197 4.1363521,4.1363521 0 0 0 4.136197,-4.136197 4.1363521,4.1363521 0 0 0 -0.448179,-1.872598 7.2386165,7.0976043 0 0 0 2.798387,-5.600978 7.2386165,7.0976043 0 0 0 -0.797977,-3.238998 12.644076,12.644076 0 0 0 3.054008,-8.229931 12.644076,12.644076 0 0 0 -12.644033,-12.644033 z" />
        <g
           id="path3987">
          <path
             style="color:#000000;fill:#ff0000;stroke-linecap:round;stroke-linejoin:round;-inkscape-stroke:none"
             d="m 86.712891,29.421875 a 2.2602351,2.2602351 0 0 0 -3.136719,0.615234 L 68.271484,52.804687 53.230469,40.84375 A 2.2604611,2.2604611 0 0 0 50.28125,40.958984 L 29.677734,60.164062 a 2.2602351,2.2602351 0 0 0 -0.111328,3.195313 2.2602351,2.2602351 0 0 0 3.19336,0.111328 L 51.939453,45.59375 67.373047,57.867187 A 2.2604611,2.2604611 0 0 0 70.65625,57.359375 L 87.328125,32.558594 a 2.2602351,2.2602351 0 0 0 -0.615234,-3.136719 z"
             id="path1381" />
          <g
             id="g1371">
            <path
               style="color:#000000;fill:#ff0000;fill-rule:evenodd;stroke-width:1.70742;-inkscape-stroke:none"
               d="m 79.433669,27.686359 10.667948,-6.041454 a 1.7074212,1.7074212 0 0 1 2.534794,1.704035 l -1.567606,12.159231 a 2.1104888,2.1104888 0 0 1 -3.270624,1.481643 l -8.501959,-5.715509 a 2.1104888,2.1104888 0 0 1 0.137447,-3.587946 z"
               id="path1373" />
          </g>
        </g>
      </g>
    </g>
  </g>
</svg>
