<?xml version="1.0" encoding="UTF-8" standalone="no"?>
<!-- Created with Inkscape (http://www.inkscape.org/) -->

<svg
   width="2048"
   height="512"
   viewBox="0 0 541.86664 135.46667"
   version="1.1"
   id="svg5"
   xmlns="http://www.w3.org/2000/svg"
   xmlns:svg="http://www.w3.org/2000/svg">
  <defs
     id="defs2">
    <marker
       style="overflow:visible"
       id="marker7652"
       refX="0"
       refY="0"
       orient="auto-start-reverse"
       markerWidth="4"
       markerHeight="3.2"
       viewBox="0 0 6.1347524 5.9304951"
       preserveAspectRatio="xMidYMid">
      <path
         transform="scale(0.7)"
         d="m -0.21114562,-4.1055728 6.42229122,3.21114561 a 1,1 90 0 1 0,1.78885438 L -0.21114562,4.1055728 A 1.236068,1.236068 31.717474 0 1 -2,3 v -6 a 1.236068,1.236068 148.28253 0 1 1.78885438,-1.1055728 z"
         style="fill:context-stroke;fill-rule:evenodd;stroke:none"
         id="path7650" />
    </marker>
    <filter
       style="color-interpolation-filters:sRGB"
       id="filter4928" />
  </defs>
  <g
     id="g607"
     transform="translate(18.95575)">
    <g
       id="g627"
       transform="translate(-23.74088)">
      <g
         id="layer1">
        <g
           id="g20099"
           transform="translate(9.6811615,0.79701713)">
          <g
             id="g9950"
             transform="matrix(1.2291308,0,0,1.2291308,-17.055412,-8.9533994)">
            <path
               id="path7029"
               style="fill:#000000;fill-opacity:1;stroke:#000101;stroke-width:1.08175;stroke-linecap:round;stroke-linejoin:round;stroke-dasharray:none;stroke-opacity:1"
               d="m 26.793647,74.887352 c -0.365457,0 -0.661758,0.281228 -0.661758,0.628124 v 1.281052 c 0,0.346898 0.296218,0.628123 0.661758,0.628123 h 0.707164 L 25.868279,102.27925 H 40.327732 L 38.739765,77.425492 h 0.662599 c 0.365449,1.7e-5 0.661758,-0.282148 0.661758,-0.628964 v -1.281052 c 0,-0.346815 -0.296223,-0.628124 -0.661758,-0.628124 z" />
            <path
               id="path7024"
               style="fill:#000000;fill-opacity:1;stroke:#000101;stroke-width:1.07729;stroke-linecap:round;stroke-linejoin:round;stroke-dasharray:none;stroke-opacity:1"
               d="m 44.87553,63.055171 c -0.365453,0 -0.661758,0.280811 -0.661758,0.627703 v 1.281473 c 0,0.346898 0.296222,0.627703 0.661758,0.627703 h 0.803443 L 44.06452,102.16532 H 58.295258 L 56.724529,65.592891 h 0.759718 c 0.365451,1.7e-5 0.661758,-0.281728 0.661758,-0.628544 v -1.281473 c 0,-0.346811 -0.296221,-0.627703 -0.661758,-0.627703 z" />
            <path
               style="fill:#000000;fill-opacity:1;stroke:#000101;stroke-width:1.0763;stroke-linecap:round;stroke-linejoin:round;stroke-dasharray:none;stroke-opacity:1"
               d="m 62.957414,69.0379 c -0.365457,0 -0.661758,0.280807 -0.661758,0.627703 v 1.281473 c 0,0.346897 0.296218,0.627703 0.661758,0.627703 h 0.759298 l -1.625386,30.645191 h 14.340891 l -1.58166,-30.64435 h 0.715573 c 0.365451,1.7e-5 0.661758,-0.281729 0.661758,-0.628544 v -1.281473 c 0,-0.346815 -0.296221,-0.627703 -0.661758,-0.627703 z"
               id="path6999" />
            <path
               id="path7036"
               style="fill:#000000;fill-opacity:1;stroke:#000101;stroke-width:1.07994;stroke-linecap:round;stroke-linejoin:round;stroke-dasharray:none;stroke-opacity:1"
               d="m 81.039297,52.49227 c -0.365457,0 -0.661758,0.281228 -0.661758,0.628124 v 1.281052 c 0,0.346898 0.296218,0.628124 0.661758,0.628124 h 0.869871 l -1.594693,47.04956 H 94.372836 L 92.821447,55.03041 h 0.826567 c 0.365448,1.7e-5 0.661758,-0.282148 0.661758,-0.628964 v -1.281052 c 0,-0.346815 -0.296224,-0.628124 -0.661758,-0.628124 z" />
            <path
               id="rect2469"
               style="fill:none;stroke:#000000;stroke-width:4.52047;stroke-linecap:round;stroke-linejoin:round;stroke-dasharray:none;stroke-opacity:1"
               d="M 102.38292,103.01926 H 19.829594 V 20.465913" />
            <path
               id="path10894"
               style="fill:#717171;fill-opacity:1;stroke:none;stroke-width:2.18372;stroke-linecap:round;stroke-linejoin:round;stroke-dasharray:none;stroke-opacity:1"
               d="m 82.821106,15.200834 c -5.222183,0.207289 -9.783866,3.613965 -11.46538,8.562359 -0.08886,0.261499 -0.326284,0.336364 -0.550497,0.175216 -1.651896,-1.187268 -3.612837,-1.870649 -5.644841,-1.967207 -0.275804,-0.01311 -0.723814,-0.01301 -0.999623,3.6e-5 -5.213505,0.24652 -9.467251,4.292685 -9.974079,9.48735 -0.02681,0.274809 -0.249797,0.428981 -0.516423,0.357212 -0.73035,-0.196591 -1.479768,-0.313915 -2.235256,-0.349935 -0.275802,-0.01315 -0.723814,-0.01318 -0.999623,-1.51e-4 -4.084859,0.193023 -7.692837,2.739862 -9.242583,6.524248 -0.104652,0.255555 -0.252571,0.678482 -0.329927,0.943541 -0.0028,0.0095 -0.22723,-0.01114 -0.502693,-0.03005 -0.05301,-0.0036 -0.106052,-0.0068 -0.159117,-0.0096 -0.275738,-0.01435 -0.723805,-0.01437 -0.999557,-2.86e-4 -4.923774,0.251562 -8.871537,4.199156 -9.12331,9.12292 -0.0141,0.275747 -0.01397,0.723811 5.24e-4,0.999541 0.07691,1.463126 0.486524,2.889622 1.197604,4.170644 0.134004,0.241413 0.05833,0.540271 -0.171496,0.693249 -1.879716,1.251158 -3.073736,3.306345 -3.229656,5.558991 -0.01907,0.275435 -0.01916,0.723779 -1.82e-4,0.999215 0.126069,1.830084 0.938842,3.546325 2.274799,4.803433 0.201069,0.189201 0.214422,0.486662 0.04422,0.703899 -0.464403,0.592726 -0.758311,1.301388 -0.849714,2.04881 -0.0335,0.273932 -0.03376,0.723566 -8.45e-4,0.997573 0.226534,1.885712 1.721826,3.381201 3.607494,3.607994 0.274087,0.03296 0.723774,0.03296 0.997778,1.9e-5 1.885689,-0.226726 3.381026,-1.72217 3.607628,-3.607861 0.03294,-0.27409 0.03281,-0.723791 -5.22e-4,-0.997745 -0.02552,-0.20973 -0.06706,-0.4172 -0.12428,-0.620582 -0.07473,-0.265662 0.05081,-0.535669 0.308771,-0.634051 2.64901,-1.010274 4.473557,-3.473025 4.66847,-6.301434 0.01898,-0.275467 0.01907,-0.72383 1.08e-4,-0.999266 -0.02585,-0.375489 -0.08077,-0.748413 -0.164262,-1.115415 -0.06124,-0.269206 0.0897,-0.538106 0.35308,-0.620976 1.199262,-0.377334 2.313178,-0.985769 3.278769,-1.790905 0.212063,-0.176824 0.52552,-0.163293 0.7271,0.02534 0.179589,0.168054 0.298985,0.514815 0.291222,0.79068 -0.0017,0.05992 -0.0048,0.333333 0.02816,0.607337 0.226708,1.885534 1.721931,3.380802 3.607444,3.607577 0.274087,0.03296 0.723774,0.03296 0.997778,1.9e-5 1.885535,-0.226707 3.380803,-1.721931 3.607578,-3.607444 0.03296,-0.274087 0.03283,-0.723789 -5.34e-4,-0.997739 -0.0073,-0.05993 0.159881,-0.249153 0.359052,-0.440328 0.582308,-0.558932 1.055231,-1.221714 1.394371,-1.954156 0.115996,-0.250517 0.414062,-0.424656 0.689834,-0.413393 0.09441,0.0039 0.395716,0.0063 0.669997,-0.02443 0.306611,-0.0344 0.608904,-0.100098 0.902131,-0.196071 0.262308,-0.08585 0.616657,-0.01607 0.812278,0.178806 0.63706,0.634626 1.344595,1.194346 2.108805,1.668242 0.234664,0.145518 0.42817,0.303535 0.426584,0.364154 0.160374,2.309164 1.054402,3.978635 2.482611,5.098881 0.217226,0.170387 0.291403,0.487235 0.18533,0.74201 -0.144687,0.347524 -0.241264,0.713203 -0.28704,1.08685 -0.03356,0.273923 -0.03385,0.723556 -9.05e-4,0.99756 0.226726,1.885689 1.722171,3.381027 3.607862,3.607628 0.27409,0.03294 0.723777,0.03291 0.997781,-3.2e-5 1.885534,-0.226708 3.380802,-1.721931 3.607577,-3.607444 0.03296,-0.274087 0.03288,-0.723788 -4.26e-4,-0.997745 -0.04545,-0.373821 -0.14174,-0.739715 -0.286192,-1.087481 -0.105861,-0.25486 -0.03156,-0.571858 0.185607,-0.742309 1.427385,-1.120317 2.320796,-2.789345 2.461481,-4.598418 0.02141,-0.275246 0.02149,-0.723751 1.57e-4,-0.999 -0.02091,-0.269856 0.123023,-0.621041 0.336017,-0.796759 2.159913,-1.781911 3.615985,-4.274958 4.106871,-7.031671 0.04841,-0.271847 0.290859,-0.561862 0.546761,-0.66549 0.603561,-0.244412 1.171406,-0.569163 1.688118,-0.965436 0.219078,-0.168013 0.573596,-0.1951 0.815609,-0.06223 0.161713,0.08878 0.232272,0.369501 0.189772,0.642183 -0.0071,0.04565 -0.01346,0.09141 -0.01905,0.137274 -0.03334,0.273951 -0.03345,0.723582 -5.09e-4,0.997586 0.226726,1.885689 1.72217,3.381026 3.607861,3.607628 0.27409,0.03294 0.723777,0.03291 0.997781,-3.2e-5 1.885534,-0.226708 3.380802,-1.721931 3.607577,-3.607444 0.03297,-0.274087 0.0329,-0.723788 -3.81e-4,-0.997748 -0.03796,-0.312475 -0.111469,-0.619611 -0.219091,-0.915414 -0.09436,-0.259341 -0.01945,-0.592777 0.188084,-0.774855 1.401124,-1.22925 2.25981,-2.946262 2.393158,-4.784962 0.01997,-0.275361 0.02009,-0.723761 2.55e-4,-0.999131 -0.05679,-0.7883 -0.247462,-1.561827 -0.564131,-2.288546 -0.110287,-0.253096 -0.06911,-0.620077 0.102425,-0.836453 1.663014,-2.0977 2.617463,-4.669747 2.725437,-7.344499 0.01114,-0.2759 0.01132,-0.72382 5.88e-4,-0.999736 -0.256051,-6.585564 -5.548902,-11.878413 -12.134468,-12.134458 -0.27591,-0.01073 -0.499851,-0.0097 -0.499837,-0.0097 z" />
            <g
               id="path3987">
              <path
                 style="color:#000000;fill:#ff0000;stroke-linecap:round;stroke-linejoin:round;-inkscape-stroke:none"
                 d="m 85.017578,29.080078 a 2.2602353,2.2602353 0 0 0 -1.441406,0.957031 L 68.271484,52.804687 53.230469,40.84375 A 2.2604613,2.2604613 0 0 0 50.28125,40.958984 L 29.677734,60.164062 a 2.2602353,2.2602353 0 0 0 -0.111328,3.195313 2.2602353,2.2602353 0 0 0 3.19336,0.111328 L 51.939453,45.59375 67.373047,57.867187 A 2.2604613,2.2604613 0 0 0 70.65625,57.359375 L 87.328125,32.558594 a 2.2602353,2.2602353 0 0 0 -0.615234,-3.136719 2.2602353,2.2602353 0 0 0 -1.695313,-0.341797 z"
                 id="path1221" />
              <g
                 id="g1211">
                <path
                   style="color:#000000;fill:#ff0000;fill-rule:evenodd;stroke-width:1.70742;-inkscape-stroke:none"
                   d="m 79.433668,27.686358 10.667949,-6.041454 a 1.7074214,1.7074214 0 0 1 2.534795,1.704036 l -1.567606,12.159232 a 2.110489,2.110489 0 0 1 -3.270625,1.481642 l -8.50196,-5.715509 a 2.110489,2.110489 0 0 1 0.137447,-3.587947 z"
                   id="path1213" />
              </g>
            </g>
          </g>
        </g>
      </g>
      <g
         aria-label="ZAPogoda"
         id="text306"
         style="font-size:102.306px;line-height:1.25;letter-spacing:0px;fill:#ff0000;stroke-width:0.264583">
        <path
           d="m 171.60207,40.3652 v 16.185129 l -15.68559,48.505431 h 15.68559 v 16.18513 H 132.83768 V 109.50168 L 149.02281,56.550329 H 134.73594 V 40.3652 Z"
           id="path311" />
        <path
           d="m 215.41181,40.3652 12.03894,80.87569 h -21.53022 l -1.04903,-14.53664 h -7.54307 l -1.24885,14.53664 H 174.29959 L 184.98976,40.3652 Z m -11.13976,52.00222 q -1.59853,-13.737378 -3.19706,-33.918835 -3.19707,23.178703 -3.99633,33.918835 z"
           id="path313" />
        <path
           d="m 231.04745,40.3652 h 21.18054 q 8.5921,0 13.18788,1.348761 4.64573,1.348761 6.94362,3.89642 2.34784,2.547659 3.14711,6.194308 0.84922,3.596696 0.84922,11.189719 v 7.043529 q 0,7.742885 -1.59853,11.289626 -1.59853,3.546742 -5.89459,5.444998 -4.2461,1.898255 -11.13976,1.898255 h -5.64482 v 32.570074 h -21.03067 z m 21.03067,13.837286 v 20.58109 q 0.89918,0.04995 1.54858,0.04995 2.89734,0 3.99633,-1.398715 1.14894,-1.448669 1.14894,-5.944538 v -6.643895 q 0,-4.146191 -1.2988,-5.395043 -1.29881,-1.248853 -5.39505,-1.248853 z"
           id="path315" />
        <path
           d="m 327.45886,78.230409 v 16.235083 q 0,8.941788 -0.89917,13.137928 -0.89918,4.14619 -3.84647,7.79284 -2.94729,3.5967 -7.59302,5.34509 -4.59578,1.69844 -10.59027,1.69844 -6.69385,0 -11.33958,-1.44867 -4.64573,-1.49862 -7.24335,-4.44592 -2.54766,-2.99724 -3.64665,-7.19339 -1.09899,-4.24609 -1.09899,-12.688337 V 79.679078 q 0,-9.241509 1.99817,-14.436735 1.99816,-5.195227 7.19339,-8.342335 5.19522,-3.147109 13.28779,-3.147109 6.79376,0 11.6393,2.048119 4.89551,1.998164 7.54307,5.24518 2.64757,3.247017 3.5967,6.69385 0.99908,3.446833 0.99908,10.490361 z m -20.18146,-4.99541 q 0,-5.095318 -0.54949,-6.394125 -0.5495,-1.348761 -2.34784,-1.348761 -1.79835,0 -2.3978,1.348761 -0.59945,1.298807 -0.59945,6.394125 v 29.922511 q 0,4.69568 0.59945,6.14435 0.59945,1.39872 2.34784,1.39872 1.79835,0 2.34784,-1.29881 0.59945,-1.29881 0.59945,-5.59486 z"
           style="font-family:Impact;-inkscape-font-specification:Impact;fill:#000000"
           id="path317" />
        <path
           d="m 379.96062,54.951798 v 51.053092 q 0,10.3405 -0.49954,13.3877 -0.44959,2.99724 -3.34693,6.34417 -2.89734,3.39688 -8.09256,5.14527 -5.14527,1.79835 -12.98807,1.79835 -9.64114,0 -15.48577,-3.29697 -5.84463,-3.24702 -6.04445,-12.83821 h 19.58201 q 0,4.39597 3.19706,4.39597 2.29789,0 3.0472,-1.34876 0.74932,-1.34877 0.74932,-5.64482 v -4.99541 q -2.59762,2.34784 -5.49496,3.54674 -2.84738,1.1989 -5.99449,1.1989 -5.44499,0 -8.99174,-2.19798 -3.49678,-2.19798 -4.79559,-5.74472 -1.29881,-3.5967 -1.29881,-10.190638 V 71.486605 q 0,-9.441325 3.39688,-13.587515 3.39688,-4.146191 10.3405,-4.146191 3.79651,0 6.89367,1.548578 3.14711,1.548577 5.59486,4.645731 l 1.44867,-4.99541 z m -20.23141,17.583844 q 0,-4.545824 -0.5495,-5.794676 -0.49954,-1.248853 -2.29789,-1.248853 -1.74839,0 -2.4977,1.448669 -0.69936,1.398715 -0.69936,5.59486 v 22.279529 q 0,4.445915 0.5495,5.794679 0.54949,1.2988 2.29788,1.2988 1.99817,0 2.59762,-1.59853 0.59945,-1.598529 0.59945,-7.243343 z"
           style="font-family:Impact;-inkscape-font-specification:Impact;fill:#000000"
           id="path319" />
        <path
           d="m 432.81207,78.230409 v 16.235083 q 0,8.941788 -0.89917,13.137928 -0.89918,4.14619 -3.84647,7.79284 -2.94729,3.5967 -7.59302,5.34509 -4.59578,1.69844 -10.59027,1.69844 -6.69385,0 -11.33958,-1.44867 -4.64573,-1.49862 -7.24335,-4.44592 -2.54766,-2.99724 -3.64665,-7.19339 -1.09899,-4.24609 -1.09899,-12.688337 V 79.679078 q 0,-9.241509 1.99817,-14.436735 1.99816,-5.195227 7.19339,-8.342335 5.19522,-3.147109 13.28779,-3.147109 6.79376,0 11.6393,2.048119 4.89551,1.998164 7.54307,5.24518 2.64757,3.247017 3.5967,6.69385 0.99908,3.446833 0.99908,10.490361 z m -20.18146,-4.99541 q 0,-5.095318 -0.54949,-6.394125 -0.5495,-1.348761 -2.34784,-1.348761 -1.79835,0 -2.3978,1.348761 -0.59945,1.298807 -0.59945,6.394125 v 29.922511 q 0,4.69568 0.59945,6.14435 0.59945,1.39872 2.34784,1.39872 1.79835,0 2.34785,-1.29881 0.59944,-1.29881 0.59944,-5.59486 z"
           style="font-family:Impact;-inkscape-font-specification:Impact;fill:#000000"
           id="path321" />
        <path
           d="m 485.36378,40.3652 v 80.87569 h -20.18145 v -4.79559 q -2.89734,2.99724 -6.0944,4.49587 -3.19707,1.49862 -6.69385,1.49862 -4.69569,0 -8.14252,-2.44775 -3.44684,-2.49771 -4.44592,-5.74472 -0.94913,-3.24702 -0.94913,-10.59027 v -31.0215 q 0,-7.642978 0.94913,-10.84004 0.99908,-3.197063 4.49587,-5.59486 3.49679,-2.447751 8.34234,-2.447751 3.74655,0 6.84371,1.348761 3.14711,1.348761 5.69477,4.046282 V 40.3652 Z m -20.18145,31.271268 q 0,-3.64665 -0.64941,-4.895502 -0.59945,-1.248853 -2.44775,-1.248853 -1.79835,0 -2.44775,1.148945 -0.59945,1.09899 -0.59945,4.99541 v 32.470162 q 0,4.04629 0.59945,5.34509 0.59945,1.24886 2.29789,1.24886 1.94821,0 2.59761,-1.39872 0.64941,-1.44867 0.64941,-6.99357 z"
           style="font-family:Impact;-inkscape-font-specification:Impact;fill:#000000"
           id="path323" />
        <path
           d="m 510.64055,80.628206 h -18.93261 v -4.445915 q 0,-7.692932 1.7484,-11.839122 1.79834,-4.196145 7.14343,-7.393207 5.34509,-3.197063 13.88724,-3.197063 10.24059,0 15.43582,3.64665 5.19523,3.596695 6.24426,8.89183 1.04904,5.245181 1.04904,21.68008 v 33.269431 h -19.63196 v -5.89458 q -1.8483,3.54674 -4.7956,5.34509 -2.89733,1.74839 -6.94362,1.74839 -5.29513,0 -9.74105,-2.94729 -4.39596,-2.99725 -4.39596,-13.03802 v -5.445 q 0,-7.443162 2.34785,-10.140683 2.34784,-2.697522 11.6393,-6.294217 9.94087,-3.89642 10.64023,-5.245181 0.69935,-1.34876 0.69935,-5.494951 0,-5.195226 -0.79926,-6.743803 -0.74931,-1.598532 -2.54766,-1.598532 -2.04812,0 -2.54766,1.348761 -0.49954,1.298807 -0.49954,6.843712 z m 6.39412,9.091646 q -4.84555,3.546742 -5.64481,5.944539 -0.74931,2.397796 -0.74931,6.893669 0,5.14527 0.6494,6.64389 0.69936,1.49863 2.69752,1.49863 1.89826,0 2.44775,-1.14895 0.59945,-1.1989 0.59945,-6.19431 z"
           style="font-family:Impact;-inkscape-font-specification:Impact;fill:#000000"
           id="path325" />
      </g>
    </g>
  </g>
</svg>
